# Blender v2.92.0 OBJ File: ''
# www.blender.org
mtllib Ship.mtl
o Cube.001
v 0.000000 -0.861313 0.129528
v 0.067056 -0.861313 0.136132
v 0.131507 -0.861313 0.155692
v 0.190917 -0.861313 0.187434
v 0.242980 -0.861313 0.230173
v 0.285719 -0.861313 0.282236
v 0.317462 -0.861313 0.341647
v 0.337021 -0.861313 0.406097
v 1.471878 -0.914299 0.602711
v 1.322236 -0.923168 0.729036
v 1.151074 -0.935881 0.823754
v 0.964971 -0.951949 0.883226
v 0.771078 -0.970756 0.905166
v 0.576847 -0.991578 0.888731
v 0.382683 -1.000000 0.923880
v 0.195090 -1.000000 0.980785
v -0.000000 -1.000000 1.000000
v -0.195091 -1.000000 0.980785
v -0.382684 -1.000000 0.923879
v -0.564425 -1.001378 0.819012
v -0.759030 -0.983550 0.834517
v -0.952987 -0.966659 0.811608
v -1.138842 -0.951355 0.751168
v -1.309453 -0.938226 0.655518
v -1.458264 -0.927776 0.528334
v -0.337021 -0.861313 0.406096
v -0.317461 -0.861313 0.341646
v -0.285718 -0.861313 0.282235
v -0.242979 -0.861313 0.230173
v -0.190916 -0.861313 0.187434
v -0.131505 -0.861313 0.155691
v -0.067055 -0.861313 0.136132
v 0.000000 1.000000 0.000000
vt 0.250000 0.490000
vt 0.250000 0.250000
vt 0.296822 0.485388
vt 0.341844 0.471731
vt 0.383337 0.449553
vt 0.419706 0.419706
vt 0.449553 0.383337
vt 0.471731 0.341844
vt 0.485388 0.296822
vt 0.490000 0.250000
vt 0.485388 0.203178
vt 0.471731 0.158156
vt 0.449553 0.116663
vt 0.419706 0.080294
vt 0.383337 0.050447
vt 0.341844 0.028269
vt 0.296822 0.014612
vt 0.250000 0.010000
vt 0.203178 0.014612
vt 0.158156 0.028269
vt 0.116663 0.050447
vt 0.080294 0.080294
vt 0.050447 0.116663
vt 0.028269 0.158156
vt 0.014611 0.203179
vt 0.010000 0.250000
vt 0.014612 0.296822
vt 0.028269 0.341844
vt 0.050447 0.383337
vt 0.080295 0.419706
vt 0.116663 0.449553
vt 0.158156 0.471731
vt 0.750000 0.490000
vt 0.796822 0.485388
vt 0.841844 0.471731
vt 0.883337 0.449553
vt 0.919706 0.419706
vt 0.949553 0.383337
vt 0.971731 0.341844
vt 0.985388 0.296822
vt 0.990000 0.250000
vt 0.985388 0.203178
vt 0.971731 0.158156
vt 0.949553 0.116663
vt 0.919706 0.080294
vt 0.883337 0.050447
vt 0.841844 0.028269
vt 0.796822 0.014612
vt 0.750000 0.010000
vt 0.703178 0.014612
vt 0.658156 0.028269
vt 0.616663 0.050447
vt 0.580294 0.080294
vt 0.550447 0.116663
vt 0.528269 0.158156
vt 0.514611 0.203179
vt 0.510000 0.250000
vt 0.514612 0.296822
vt 0.528269 0.341844
vt 0.550447 0.383337
vt 0.580295 0.419706
vt 0.616663 0.449553
vt 0.658156 0.471731
vt 0.703179 0.485389
vt 0.203179 0.485389
vn 0.0978 -0.0691 -0.9928
vn 0.2899 -0.0594 -0.9552
vn 0.4709 -0.0404 -0.8813
vn 0.6345 -0.0128 -0.7729
vn 0.7727 0.0224 -0.6343
vn 0.8802 0.0638 -0.4703
vn 0.9512 0.1092 -0.2887
vn 0.1595 -0.1828 -0.9701
vn 0.5020 0.5862 0.6359
vn 0.3754 0.5429 0.7512
vn 0.2261 0.4922 0.8406
vn 0.0594 0.4357 0.8981
vn -0.1181 0.3759 0.9191
vn 0.1418 0.4374 0.8880
vn 0.2599 0.4455 0.8567
vn 0.0878 0.4455 0.8910
vn -0.0878 0.4455 0.8910
vn -0.2599 0.4455 0.8567
vn -0.4503 0.4440 0.7746
vn 0.1063 0.3508 0.9304
vn -0.0717 0.4100 0.9093
vn -0.2385 0.4670 0.8515
vn -0.3872 0.5193 0.7619
vn -0.5128 0.5650 0.6464
vn -0.0948 -0.1958 -0.9761
vn -0.9512 0.1092 -0.2887
vn -0.8802 0.0638 -0.4703
vn -0.7727 0.0224 -0.6343
vn -0.6344 -0.0128 -0.7729
vn -0.4709 -0.0404 -0.8813
vn 0.0105 -0.9794 -0.2016
vn -0.2899 -0.0594 -0.9552
vn -0.0978 -0.0691 -0.9928
usemtl Material.001
s off
f 1/1/1 33/2/1 2/3/1
f 2/3/2 33/2/2 3/4/2
f 3/4/3 33/2/3 4/5/3
f 4/5/4 33/2/4 5/6/4
f 5/6/5 33/2/5 6/7/5
f 6/7/6 33/2/6 7/8/6
f 7/8/7 33/2/7 8/9/7
f 8/9/8 33/2/8 9/10/8
f 9/10/9 33/2/9 10/11/9
f 10/11/10 33/2/10 11/12/10
f 11/12/11 33/2/11 12/13/11
f 12/13/12 33/2/12 13/14/12
f 13/14/13 33/2/13 14/15/13
f 14/15/14 33/2/14 15/16/14
f 15/16/15 33/2/15 16/17/15
f 16/17/16 33/2/16 17/18/16
f 17/18/17 33/2/17 18/19/17
f 18/19/18 33/2/18 19/20/18
f 19/20/19 33/2/19 20/21/19
f 20/21/20 33/2/20 21/22/20
f 21/22/21 33/2/21 22/23/21
f 22/23/22 33/2/22 23/24/22
f 23/24/23 33/2/23 24/25/23
f 24/25/24 33/2/24 25/26/24
f 25/26/25 33/2/25 26/27/25
f 26/27/26 33/2/26 27/28/26
f 27/28/27 33/2/27 28/29/27
f 28/29/28 33/2/28 29/30/28
f 29/30/29 33/2/29 30/31/29
f 30/31/30 33/2/30 31/32/30
f 1/33/31 2/34/31 3/35/31 4/36/31 5/37/31 6/38/31 7/39/31 8/40/31 9/41/31 10/42/31 11/43/31 12/44/31 13/45/31 14/46/31 15/47/31 16/48/31 17/49/31 18/50/31 19/51/31 20/52/31 21/53/31 22/54/31 23/55/31 24/56/31 25/57/31 26/58/31 27/59/31 28/60/31 29/61/31 30/62/31 31/63/31 32/64/31
f 31/32/32 33/2/32 32/65/32
f 32/65/33 33/2/33 1/1/33
